HIERARCHY
ROOT Hips
{
	OFFSET 	 0.0	 0.0	 0.0
	CHANNELS 6 Xposition Yposition Zposition Xrotation Yrotation Zrotation 
	JOINT Spine
	{
		OFFSET 	 15.3169	 0.0	 -0.012192
		CHANNELS 3 Xrotation Yrotation Zrotation 
		JOINT Spine_1
		{
			OFFSET 	 15.3176	 0.0	 -0.012192
			CHANNELS 3 Xrotation Yrotation Zrotation 
			JOINT Neck
			{
				OFFSET 	 19.9142	 -1e-06	 1.563377
				CHANNELS 3 Xrotation Yrotation Zrotation 
				JOINT Head
				{
					OFFSET 	 6.926521	 0.0	 0.0
					CHANNELS 3 Xrotation Yrotation Zrotation 
					End Site
					{
						OFFSET 	 20.766598	 0.0	 0.0
					}
				}
				JOINT LeftShoulder
				{
					OFFSET 	 -6.201691	 -7.28423	 0.708832
					CHANNELS 3 Xrotation Yrotation Zrotation 
					JOINT LeftArm
					{
						OFFSET 	 14.107998	 1.3e-05	 0.0
						CHANNELS 3 Xrotation Yrotation Zrotation 
						JOINT LeftForeArm
						{
							OFFSET 	 28.5802	 0.0	 0.0
							CHANNELS 3 Xrotation Yrotation Zrotation 
							JOINT LeftHand
							{
								OFFSET 	 27.091896	 0.0	 0.0
								CHANNELS 3 Xrotation Yrotation Zrotation 
								JOINT Bip01_L_Finger0
								{
									OFFSET 	 2.676086	 3.19825	 0.628212
									CHANNELS 3 Xrotation Yrotation Zrotation 
									JOINT Bip01_L_Finger01
									{
										OFFSET 	 2.82782	 0.0	 0.0
										CHANNELS 3 Xrotation Yrotation Zrotation 
										JOINT Bip01_L_Finger02
										{
											OFFSET 	 3.100327	 0.0	 0.0
											CHANNELS 3 Xrotation Yrotation Zrotation 
											End Site
											{
												OFFSET 	 2.683968	 0.0	 0.0
											}
										}
									}
								}
								JOINT Bip01_L_Finger1
								{
									OFFSET 	 9.438972	 2.24244	 -0.203926
									CHANNELS 3 Xrotation Yrotation Zrotation 
									JOINT Bip01_L_Finger11
									{
										OFFSET 	 3.12896	 0.0	 0.0
										CHANNELS 3 Xrotation Yrotation Zrotation 
										JOINT Bip01_L_Finger12
										{
											OFFSET 	 2.379051	 0.0	 0.0
											CHANNELS 3 Xrotation Yrotation Zrotation 
											End Site
											{
												OFFSET 	 2.09993	 0.0	 0.0
											}
										}
									}
								}
								JOINT Bip01_L_Finger2
								{
									OFFSET 	 9.55928	 -0.145352	 -0.186424
									CHANNELS 3 Xrotation Yrotation Zrotation 
									JOINT Bip01_L_Finger21
									{
										OFFSET 	 3.801407	 0.0	 0.0
										CHANNELS 3 Xrotation Yrotation Zrotation 
										JOINT Bip01_L_Finger22
										{
											OFFSET 	 2.848793	 0.0	 0.0
											CHANNELS 3 Xrotation Yrotation Zrotation 
											End Site
											{
												OFFSET 	 2.01886	 0.0	 0.0
											}
										}
									}
								}
								JOINT Bip01_L_Finger3
								{
									OFFSET 	 8.993629	 -2.30169	 0.226974
									CHANNELS 3 Xrotation Yrotation Zrotation 
									JOINT Bip01_L_Finger31
									{
										OFFSET 	 3.369652	 0.0	 0.0
										CHANNELS 3 Xrotation Yrotation Zrotation 
										JOINT Bip01_L_Finger32
										{
											OFFSET 	 2.444229	 0.0	 0.0
											CHANNELS 3 Xrotation Yrotation Zrotation 
											End Site
											{
												OFFSET 	 2.057808	 0.0	 0.0
											}
										}
									}
								}
								JOINT Bip01_L_Finger4
								{
									OFFSET 	 8.023811	 -3.97473	 1.201897
									CHANNELS 3 Xrotation Yrotation Zrotation 
									JOINT Bip01_L_Finger41
									{
										OFFSET 	 2.908783	 0.0	 0.0
										CHANNELS 3 Xrotation Yrotation Zrotation 
										JOINT Bip01_L_Finger42
										{
											OFFSET 	 1.535797	 0.0	 0.0
											CHANNELS 3 Xrotation Yrotation Zrotation 
											End Site
											{
												OFFSET 	 1.630142	 0.0	 0.0
											}
										}
									}
								}
							}
						}
					}
				}
				JOINT RightShoulder
				{
					OFFSET 	 -6.20549	 7.280139	 0.70887
					CHANNELS 3 Xrotation Yrotation Zrotation 
					JOINT RightArm
					{
						OFFSET 	 14.107998	 -1e-05	 0.0
						CHANNELS 3 Xrotation Yrotation Zrotation 
						JOINT RightForeArm
						{
							OFFSET 	 28.5802	 -1.9e-05	 0.0
							CHANNELS 3 Xrotation Yrotation Zrotation 
							JOINT RightHand
							{
								OFFSET 	 27.092003	 0.0	 0.0
								CHANNELS 3 Xrotation Yrotation Zrotation 
								JOINT Bip01_R_Finger0
								{
									OFFSET 	 2.676079	 -3.19825	 0.628212
									CHANNELS 3 Xrotation Yrotation Zrotation 
									JOINT Bip01_R_Finger01
									{
										OFFSET 	 2.82782	 0.0	 0.0
										CHANNELS 3 Xrotation Yrotation Zrotation 
										JOINT Bip01_R_Finger02
										{
											OFFSET 	 3.100342	 0.0	 0.0
											CHANNELS 3 Xrotation Yrotation Zrotation 
											End Site
											{
												OFFSET 	 2.68396	 0.0	 0.0
											}
										}
									}
								}
								JOINT Bip01_R_Finger1
								{
									OFFSET 	 9.438957	 -2.242439	 -0.203918
									CHANNELS 3 Xrotation Yrotation Zrotation 
									JOINT Bip01_R_Finger11
									{
										OFFSET 	 3.12896	 0.0	 0.0
										CHANNELS 3 Xrotation Yrotation Zrotation 
										JOINT Bip01_R_Finger12
										{
											OFFSET 	 2.379051	 0.0	 0.0
											CHANNELS 3 Xrotation Yrotation Zrotation 
											End Site
											{
												OFFSET 	 2.099922	 0.0	 0.0
											}
										}
									}
								}
								JOINT Bip01_R_Finger2
								{
									OFFSET 	 9.559288	 0.145353	 -0.186417
									CHANNELS 3 Xrotation Yrotation Zrotation 
									JOINT Bip01_R_Finger21
									{
										OFFSET 	 3.801407	 0.0	 0.0
										CHANNELS 3 Xrotation Yrotation Zrotation 
										JOINT Bip01_R_Finger22
										{
											OFFSET 	 2.848793	 0.0	 0.0
											CHANNELS 3 Xrotation Yrotation Zrotation 
											End Site
											{
												OFFSET 	 2.01886	 0.0	 0.0
											}
										}
									}
								}
								JOINT Bip01_R_Finger3
								{
									OFFSET 	 8.993629	 2.301691	 0.226974
									CHANNELS 3 Xrotation Yrotation Zrotation 
									JOINT Bip01_R_Finger31
									{
										OFFSET 	 3.369652	 0.0	 0.0
										CHANNELS 3 Xrotation Yrotation Zrotation 
										JOINT Bip01_R_Finger32
										{
											OFFSET 	 2.444221	 0.0	 0.0
											CHANNELS 3 Xrotation Yrotation Zrotation 
											End Site
											{
												OFFSET 	 2.057823	 0.0	 0.0
											}
										}
									}
								}
								JOINT Bip01_R_Finger4
								{
									OFFSET 	 8.023811	 3.97473	 1.20192
									CHANNELS 3 Xrotation Yrotation Zrotation 
									JOINT Bip01_R_Finger41
									{
										OFFSET 	 2.908783	 0.0	 0.0
										CHANNELS 3 Xrotation Yrotation Zrotation 
										JOINT Bip01_R_Finger42
										{
											OFFSET 	 1.535797	 0.0	 0.0
											CHANNELS 3 Xrotation Yrotation Zrotation 
											End Site
											{
												OFFSET 	 1.630142	 0.0	 0.0
											}
										}
									}
								}
							}
						}
					}
				}
			}
		}
	}
	JOINT LeftUpLeg
	{
		OFFSET 	 -12.021299	 -8.83685	 -0.372498
		CHANNELS 3 Xrotation Yrotation Zrotation 
		JOINT LeftLeg
		{
			OFFSET 	 39.9035	 0.0	 0.0
			CHANNELS 3 Xrotation Yrotation Zrotation 
			JOINT LeftFoot
			{
				OFFSET 	 39.6689	 0.0	 0.0
				CHANNELS 3 Xrotation Yrotation Zrotation 
				JOINT Bip01_L_Toe0
				{
					OFFSET 	 10.162399	 -2e-06	 13.629601
					CHANNELS 3 Xrotation Yrotation Zrotation 
					End Site
					{
						OFFSET 	 8.38147	 0.0	 0.0
					}
				}
			}
		}
	}
	JOINT RightUpLeg
	{
		OFFSET 	 -12.021299	 8.836849	 -0.372444
		CHANNELS 3 Xrotation Yrotation Zrotation 
		JOINT RightLeg
		{
			OFFSET 	 39.9035	 0.0	 0.0
			CHANNELS 3 Xrotation Yrotation Zrotation 
			JOINT RightFoot
			{
				OFFSET 	 39.6689	 0.0	 0.0
				CHANNELS 3 Xrotation Yrotation Zrotation 
				JOINT Bip01_R_Toe0
				{
					OFFSET 	 10.162399	 -2e-06	 13.629601
					CHANNELS 3 Xrotation Yrotation Zrotation 
					End Site
					{
						OFFSET 	 8.38147	 0.0	 0.0
					}
				}
			}
		}
	}
}
MOTION
Frames: 4
Frame Time: 0.013889
0.0692422437232	90.0	0.0557583287893	-179.997677196	4.86231431279	-89.4730766023	-0.432128006973	4.32270905981	1.74716658681	7.35095115737e-07	2.24821660126e-07	6.73413844861e-08	3.54131108869	-39.9378036333	5.0223541256	-0.535100139975	-15.199021106	-5.94671381259	170.37335306	-22.0038965009	106.240062095	31.9861177532	28.5253474145	26.4339279045	1.09235179002e-05	45.4493823417	2.48770144621e-06	-102.003390199	9.75555641854	-2.60181876044	1.29657590019e-06	-1.48068216515e-06	7.09905059015e-07	5.51234911367e-07	1.03012194362e-06	1.04997606028e-06	-3.71467108751e-07	7.11312667655e-07	-4.1008972781e-07	1.19533903632e-06	-1.29620490469e-06	1.34433413677e-07	5.85818367976e-08	1.54909055075e-07	-2.00783896007e-07	1.62129604356e-06	-9.41177294356e-07	-1.46299041689e-06	5.8290381372e-07	-1.23866331431e-06	-3.15142842764e-08	-1.11190442063e-06	7.45651917074e-07	6.48688424108e-07	1.60990152397e-06	-2.16889696507e-07	4.08803044662e-08	1.05395321227e-06	-1.32897659785e-06	1.23865725086e-07	-4.81534529466e-07	-1.50629488061e-08	3.09311336396e-07	-3.00967468472e-07	-1.15769029459e-06	-3.47505861368e-07	1.13492210161e-06	-1.48218328228e-06	1.23259455632e-07	-3.88482853107e-07	7.98040374981e-07	8.80644895469e-07	2.26938393186e-06	1.60795236308e-07	-1.47551710015e-06	-172.884898673	-19.750231265	-105.823909386	-38.1116075689	25.7285740771	-24.3219482056	2.26628441975e-05	38.3021853441	-1.78105409727e-06	122.867046569	6.8772415944	-12.100605578	-4.403142931e-07	-9.05356521881e-07	-8.32531837795e-07	9.48050280284e-07	2.03937517938e-07	-8.88922323561e-07	1.13881090753e-06	-2.10329860061e-07	-8.34293106007e-07	-4.02393800222e-07	-4.52868093621e-07	5.41900087434e-07	6.82291333944e-07	-4.71860979823e-07	-8.17066357968e-08	9.27127684104e-07	-1.94410621666e-07	-9.17610947056e-07	-3.7681415039e-07	-7.63338659415e-07	-1.11129902148e-06	1.66812486054e-06	-6.82629856366e-07	-2.69188909218e-07	-4.21501325995e-07	-4.35958578282e-07	-9.54849435029e-07	-2.46635590241e-07	-6.30776392686e-07	-4.13850516008e-08	1.93038809725e-06	1.17366519844e-07	-7.04328379594e-07	-3.75707565065e-07	-2.4109854596e-07	-2.2097029929e-06	-4.59123326154e-07	-4.78256463827e-07	-5.73427191265e-07	1.83253340018e-06	-3.81820945248e-08	-5.90561143771e-07	-2.18309056168e-08	-2.07018164409e-07	5.30528157613e-07	19.4326580508	10.3620892789	-175.696470597	-1.31724156295e-06	15.465731993	2.48080379417e-06	7.05298594979	-4.453639191	-3.82967388341	-3.97033637732e-07	1.48980940583e-06	1.45621769739e-08	-17.6070375559	7.16587544318	-179.019244168	-2.44885486026e-06	13.2372904685	2.08666338487e-06	1.62205805331	-4.33975330271	-0.450017563262	-1.7402887621e-06	-8.76865078783e-07	2.55337829063e-07	
-0.393779461441	90.0321864235	0.0426340027615	179.499547536	5.12853586994	-89.5334197362	-0.499825488742	4.16684848779	1.59454477791	-1.58134131986e-07	-8.52024607316e-07	-3.53112503844e-31	3.69049210413	-39.9599803428	5.12701506478	-0.345862301977	-14.9558988525	-6.04011746471	169.887540752	-21.8448322521	106.076388892	31.7715653071	28.0535603456	26.1019774483	1.21318437653e-05	45.2476044898	1.92125123699e-06	-103.479646466	10.9081456764	-2.44600851711	-1.02639338989e-06	-2.60619607937e-07	1.2307108147e-06	5.56884773606e-07	3.18105937474e-07	-5.78486049867e-07	2.64988224281e-07	8.62063549905e-07	1.24439345929e-06	-1.15980586217e-06	-2.87013689475e-08	-1.10232918488e-07	3.76692907594e-07	5.90797102695e-07	1.05601997752e-06	-4.54493518821e-07	4.08410878077e-08	1.56711673621e-07	-7.55407347719e-07	-5.35277455291e-07	-2.64246403572e-07	1.02890352243e-06	-2.57801346655e-08	-3.18253478575e-07	7.47151239921e-08	4.53379887266e-07	5.23646935282e-07	-1.43174866121e-06	-7.21061763057e-07	6.45835686797e-08	1.50092854486e-06	-5.31957493991e-07	1.33773839179e-08	-5.41166333185e-07	-1.86226094039e-06	-1.33190885745e-06	-9.84544825963e-07	-9.03761762544e-07	-1.0117195572e-06	7.52738815828e-07	1.042509674e-06	-3.7743527143e-07	-3.16980893144e-07	8.3826315735e-10	1.03053963617e-06	-172.988571935	-19.6643614849	-105.788346203	-37.7151715281	25.3159922906	-24.2020606984	2.03194032203e-05	38.29124587	-2.40974136261e-06	124.390706062	7.58149969269	-12.9362091507	-7.01227770793e-07	3.74995326535e-07	1.50463609486e-07	-1.40106932967e-06	4.36711559233e-07	1.26384603316e-07	4.12427481543e-07	3.49346920219e-07	-1.97154636117e-06	-6.93536238629e-07	2.55603706023e-07	-5.91716435558e-07	4.28871875366e-07	8.21975817282e-07	1.54594161778e-07	1.47349541074e-06	7.44941910509e-07	-9.79483797925e-07	-6.87335534347e-07	3.00422607116e-07	-6.9006730263e-07	-1.46053770465e-06	-5.40041762304e-07	4.02514830292e-07	5.03525975016e-07	-3.87175032087e-07	-9.83110971934e-07	-1.30176004137e-07	2.70128292535e-07	6.25504936649e-07	-7.50661782929e-09	-6.85981118566e-07	-7.46756780917e-07	-1.23030348509e-07	-3.64019642535e-07	-1.36152636051e-06	-7.48993720614e-07	-4.48682865182e-07	-2.31971553487e-07	-1.12610980017e-06	1.92610609731e-07	5.26549546754e-07	-1.30138816556e-06	5.19161272888e-07	7.35088204455e-08	19.2926162094	10.4087406186	-176.222104168	-7.7018783778e-07	14.1061032676	2.4425460381e-06	6.47052213542	-4.14161138304	-3.75651274368	-4.01476299796e-08	-1.6441193315e-06	-4.01346341027e-07	-17.3590743794	7.65112583431	-178.969775846	2.69207548516e-08	12.9378490951	2.00764133767e-06	1.65191469768	-4.06706406736	-0.180743046372	4.56091423425e-07	1.567763695e-06	-6.74824880931e-07	
-0.817087259077	89.9397531648	-0.103776761072	179.426531771	5.5931958048	-89.8606954142	-0.460045898251	3.98322647065	1.54836903821	2.17691854436e-07	-6.954098027e-09	-1.18249124465e-07	3.83332889868	-40.1073664957	5.38701979717	-0.3454623402	-14.9084532266	-5.96463173785	169.825602365	-21.8312304374	106.080938198	31.6145550368	27.6961876613	25.9975391413	8.57910459323e-06	45.6338016061	-6.48922035763e-07	-104.846679124	12.636495597	-1.40445646362	7.12408849254e-07	1.34536751786e-06	1.09193416431e-06	1.54605165808e-06	1.10242246158e-06	7.63755111791e-07	1.35799316052e-08	8.5983275299e-07	7.99383921032e-07	3.90460806824e-07	1.32323164572e-06	2.09340688676e-07	2.05813059304e-06	1.31624699639e-07	5.26152246572e-07	3.27812585828e-08	-3.92776381934e-07	4.15536026461e-07	4.14551302113e-07	9.58309215184e-07	2.68422695033e-07	1.46650242868e-06	8.25387027005e-07	5.1114694477e-07	-1.19197154872e-08	2.95932952191e-07	1.17501134746e-06	1.87973624873e-07	1.13998968556e-06	1.28317276919e-07	9.92645535928e-07	2.39088565958e-07	6.32867684418e-07	9.90627255917e-08	-3.59831467478e-07	6.38281882862e-08	7.70083255007e-07	1.18719902688e-06	4.05515502452e-08	1.77827253942e-06	2.31456607496e-06	6.60249265437e-07	-6.48765031824e-07	1.84496960032e-06	4.28484176615e-07	-173.020723849	-19.5191315378	-105.849621495	-37.5334889092	24.9250377137	-24.0006849998	2.09436677045e-05	38.3759717187	-2.0938524545e-06	124.494301763	8.60717209432	-13.5943132309	1.53978846458e-07	7.93416411858e-07	-6.47013038299e-07	-1.02014651127e-06	9.70902597814e-07	-1.84996433171e-06	-1.47209002412e-06	3.21364305828e-07	-3.70686021202e-06	4.51428728275e-07	7.72935314592e-07	-6.07382962293e-07	-6.76450887691e-07	-2.04041371159e-07	-5.09394265885e-07	1.19892679447e-09	1.06142679876e-06	-1.43449817527e-06	2.2520745249e-07	8.92542792246e-07	3.37927591158e-09	-7.29351596387e-07	-7.46595776339e-08	7.32315868526e-07	-9.38395664849e-07	4.50939687742e-08	-2.79129740512e-07	6.92908707805e-07	6.12018034892e-07	-1.34831707975e-07	-1.22024317659e-06	-1.87158471743e-07	-9.27029658905e-07	-5.20649767608e-07	1.4278359442e-07	-2.21426637424e-06	4.68421523074e-07	-6.81662107749e-08	-7.74180490134e-07	-2.06935277899e-06	3.38552101144e-07	-7.64458523398e-07	-1.29391999979e-06	5.62929051049e-07	-8.98230068426e-07	19.1417836952	9.9729511072	-176.224164534	-9.29889856885e-07	13.0875598247	2.20850168231e-06	5.92723602093	-3.73837023711	-3.71559698001	3.73792764937e-07	-5.07778433405e-07	6.08774349599e-08	-17.3449659689	7.55410969658	-178.871879266	-3.07407397659e-06	12.7124107825	1.61548070198e-06	1.25755936316	-3.98409331884	0.0601377983509	-1.70823224063e-06	1.61881356641e-06	1.00907670872e-07	
-1.44731831541	89.9498071598	-0.164477364682	179.02912952	6.37495007176	-90.0616768562	-0.439036972044	3.61475648692	1.19779368786	-6.4222997141e-07	-4.93342590261e-07	1.85948902395e-07	4.23538515834	-39.9909052386	5.8575096286	-0.15194616279	-14.486278701	-5.96488497582	169.355603172	-21.6827819266	106.090100458	31.2305141053	27.0224920873	25.4969568218	9.75408720404e-06	45.93937567	-1.76207451005e-06	-107.790403408	14.6947586701	0.533233051676	2.40113787007e-07	3.15737210765e-07	1.60754874413e-06	3.49648561039e-07	1.64383335448e-06	-9.72334988785e-08	-1.18593412885e-06	5.57022420658e-07	4.07865938144e-07	6.67694083948e-09	3.63479481285e-07	1.44673679665e-06	-1.70301402136e-06	-2.41844340481e-07	-6.01347606949e-07	-2.19553869193e-06	5.77203690994e-07	-3.5574050386e-08	-1.10971447888e-07	3.6648279848e-08	7.55722823545e-07	-1.51235810074e-06	1.9148081214e-08	-5.48875095899e-07	-2.54355540167e-06	-6.77031720101e-07	-5.54004190375e-07	-4.99287219062e-07	-3.04851319e-07	1.56371863729e-06	9.2033128246e-07	-1.9260472771e-07	-1.83462158065e-07	-2.97913996049e-06	-3.79386012308e-07	1.16084980803e-07	9.57320620908e-08	2.29716181558e-07	1.00054826305e-06	-1.22130774773e-06	1.34901249137e-06	3.6168533332e-07	-1.50664060115e-06	1.49782549586e-06	5.20656063333e-07	-173.158495506	-19.2095875999	-105.886830664	-36.2614838032	24.2589156026	-23.7255233619	2.75913445026e-05	38.1492868353	-4.01056175925e-06	125.764309932	9.66854803399	-14.8462602872	-2.52645219199e-07	3.28202062879e-08	1.02563584032e-06	-6.88371758523e-07	-3.68526543689e-07	2.84304478549e-07	1.60661616951e-07	8.71536599323e-08	8.20661892854e-07	-9.84680587586e-07	3.9777186642e-07	6.20648355226e-07	4.98692166221e-07	-2.99324533966e-07	8.32086997119e-07	3.72511231126e-07	6.69968237202e-07	-6.08726340862e-07	-1.27837793133e-06	3.46720298187e-07	1.39559462786e-06	5.30930018986e-07	-1.23103213247e-07	2.00102197771e-06	1.31976024836e-07	1.44663008313e-07	1.04082356846e-06	-1.25485977618e-06	1.83939907734e-07	8.79841653477e-07	2.26354765407e-07	2.80343310072e-07	1.34930818703e-06	6.59020418518e-07	3.17742083283e-07	-2.2106591594e-08	-1.3405460956e-06	3.62917980381e-07	1.53477886769e-07	3.89508744363e-08	4.05544725221e-07	2.15431902152e-07	5.27977487832e-07	-5.72889469711e-08	-1.0511698184e-06	19.1646460994	10.0318923313	-176.625029054	-2.81646882232e-07	12.5381764097	2.62400473372e-06	5.09121685058	-3.49044929247	-3.30217992462	-1.021798613e-08	5.3676311841e-07	1.23330028858e-06	-17.2914190304	8.25138522315	-178.850076336	-2.12326297645e-06	12.8474548182	2.4417642454e-06	0.518497323737	-3.81113649029	0.366592753504	-8.19231226882e-07	8.76147250358e-07	1.4000078281e-07	
